<?xml version="1.0" standalone="no"?>
<!DOCTYPE svg PUBLIC "-//W3C//DTD SVG 20010904//EN"
 "http://www.w3.org/TR/2001/REC-SVG-20010904/DTD/svg10.dtd">
<svg version="1.0" xmlns="http://www.w3.org/2000/svg"
 width="260.000000pt" height="260.000000pt" viewBox="0 0 260.000000 260.000000"
 preserveAspectRatio="xMidYMid meet">
<metadata>
Created by potrace 1.14, written by Peter Selinger 2001-2017
</metadata>
<g transform="translate(0.000000,260.000000) scale(0.100000,-0.100000)"
fill="#000000" stroke="none">
<path d="M1282 2574 c-6 -11 -13 -18 -17 -16 -9 5 -65 -22 -65 -31 0 -5 -5 -5
-10 -2 -6 3 -23 -3 -39 -14 -15 -11 -31 -18 -35 -14 -3 3 -6 1 -6 -5 0 -7 -7
-12 -15 -12 -8 0 -15 -5 -15 -11 0 -5 -4 -8 -8 -5 -5 3 -27 -6 -51 -20 -24
-13 -49 -24 -57 -24 -8 0 -14 -4 -14 -10 0 -5 -12 -13 -27 -16 -16 -4 -30 -10
-33 -13 -9 -10 -105 -56 -112 -53 -5 1 -8 -2 -8 -8 0 -5 -9 -10 -20 -10 -11 0
-23 -7 -26 -15 -4 -8 -10 -12 -15 -9 -5 3 -21 -3 -37 -14 -15 -11 -37 -23 -49
-26 -13 -4 -23 -12 -23 -18 0 -6 -3 -9 -6 -5 -6 6 -104 -40 -114 -54 -3 -3
-13 -5 -22 -4 -9 2 -19 -4 -22 -12 -3 -8 -10 -11 -16 -8 -5 3 -10 2 -10 -2 0
-9 -72 -43 -91 -43 -5 0 -7 -4 -4 -10 3 -5 0 -10 -7 -10 -19 0 -68 -23 -68
-32 0 -4 -9 -5 -20 -3 -11 2 -20 1 -20 -3 0 -4 -13 -15 -29 -25 -25 -15 -28
-21 -24 -53 3 -25 1 -34 -6 -30 -7 5 -9 1 -5 -8 3 -9 11 -16 18 -16 6 0 4 -5
-4 -10 -8 -5 -11 -10 -6 -10 5 0 2 -8 -5 -17 -12 -14 -12 -15 0 -9 11 7 12 1
6 -33 -5 -31 -4 -41 7 -41 10 0 9 -3 -2 -10 -8 -5 -11 -10 -6 -10 5 0 2 -8 -5
-17 -9 -10 -9 -14 -2 -10 9 6 11 -4 10 -35 -2 -24 -6 -48 -10 -54 -3 -6 -3
-14 1 -18 10 -10 11 -186 1 -180 -5 3 -6 -2 -3 -10 3 -9 11 -16 18 -16 6 0 4
-5 -4 -10 -8 -5 -11 -10 -6 -10 5 0 2 -8 -5 -17 -12 -14 -12 -15 0 -9 11 7 12
1 6 -33 -5 -31 -4 -41 7 -41 10 0 9 -3 -2 -10 -8 -5 -11 -10 -6 -10 5 0 2 -8
-5 -17 -12 -14 -12 -15 0 -9 11 7 12 0 6 -34 -6 -34 -5 -41 6 -35 8 5 6 -1 -4
-12 -9 -11 -14 -23 -10 -27 10 -10 12 -186 2 -180 -5 3 -6 -2 -3 -10 3 -9 11
-16 18 -16 6 0 4 -5 -4 -10 -8 -5 -11 -10 -6 -10 5 0 2 -8 -5 -17 -12 -14 -12
-15 0 -9 11 7 12 1 6 -33 -5 -31 -4 -41 7 -41 10 0 9 -3 -2 -10 -8 -5 -11 -10
-6 -10 5 0 2 -8 -5 -17 -9 -10 -9 -14 -2 -10 9 6 11 -4 10 -35 -2 -24 -6 -49
-10 -55 -4 -6 -3 -14 2 -17 5 -4 8 -21 7 -40 -3 -33 24 -73 38 -59 3 4 6 1 6
-5 0 -7 3 -12 8 -11 15 2 52 -14 52 -23 0 -5 4 -7 9 -3 5 3 12 1 16 -5 4 -6
10 -8 15 -5 4 3 11 -2 14 -11 4 -9 13 -14 21 -10 8 3 15 1 15 -4 0 -6 7 -10
15 -10 8 0 15 -4 15 -10 0 -5 9 -10 20 -10 11 0 20 -5 20 -11 0 -6 7 -9 15 -5
8 3 18 -2 23 -10 5 -8 18 -16 30 -17 12 -1 22 -4 22 -7 0 -3 9 -11 21 -18 17
-11 20 -11 14 0 -3 7 1 4 10 -7 9 -11 17 -18 18 -16 4 6 87 -34 87 -42 0 -4 4
-5 10 -2 6 3 10 1 10 -6 0 -7 3 -10 6 -6 3 3 26 -6 50 -19 25 -14 50 -22 56
-18 6 4 8 3 5 -2 -3 -6 3 -16 15 -23 16 -10 19 -10 12 1 -4 7 2 4 14 -6 12
-11 22 -15 22 -11 0 5 6 1 13 -10 8 -10 19 -15 25 -11 7 4 12 3 12 -2 0 -4 16
-14 35 -22 19 -8 35 -18 35 -23 0 -5 7 -6 15 -3 9 3 18 -1 21 -9 4 -8 12 -15
18 -15 18 0 66 -24 66 -33 0 -5 4 -6 9 -2 5 3 16 -1 24 -9 8 -8 17 -12 21 -9
3 4 6 1 6 -5 0 -7 3 -12 8 -11 15 2 52 -14 52 -23 0 -6 7 -8 15 -4 8 3 19 -2
24 -12 6 -9 11 -14 11 -9 0 4 11 1 24 -8 21 -14 25 -14 36 0 7 8 16 12 21 9 5
-3 9 0 9 6 0 6 5 8 10 5 6 -3 10 -2 10 4 0 6 12 14 27 17 15 4 34 13 41 21 8
7 18 11 23 8 5 -4 9 -2 9 3 0 9 19 17 43 20 5 0 15 9 24 19 8 10 11 11 7 4 -5
-9 5 -6 23 7 17 12 38 22 47 22 9 0 19 7 22 15 4 8 11 12 16 9 6 -4 13 -2 17
3 6 9 116 63 126 63 3 -1 13 6 21 15 9 8 24 15 35 15 10 0 19 4 19 9 0 8 42
24 47 18 1 -1 9 7 18 18 9 11 13 13 9 6 -5 -10 3 -7 22 6 16 11 39 24 52 27
12 4 22 12 22 18 0 6 3 8 6 5 4 -4 31 7 61 23 30 17 61 30 69 30 8 0 14 3 14
8 0 8 61 38 73 34 4 -1 7 2 7 6 0 4 20 16 45 26 25 11 45 24 45 29 0 6 3 7 7
4 3 -4 13 -1 21 6 13 10 14 9 8 -3 -4 -8 2 -4 14 10 12 14 18 19 14 11 -4 -9
-3 -12 4 -7 17 10 41 65 32 71 -5 3 -7 32 -4 66 3 46 1 58 -9 53 -6 -4 -4 2 6
13 11 12 14 24 8 27 -5 3 -8 33 -5 67 3 46 1 58 -9 53 -6 -4 -4 2 6 13 11 12
14 24 8 27 -5 3 -8 33 -5 67 3 46 1 58 -9 53 -6 -4 -4 2 6 13 11 12 14 24 8
27 -5 3 -8 33 -5 67 3 46 1 58 -9 53 -6 -4 -4 2 6 13 11 12 14 24 8 27 -5 3
-8 33 -5 67 3 46 1 58 -9 53 -6 -4 -4 2 6 13 11 12 14 24 8 27 -5 3 -8 33 -5
67 3 46 1 58 -9 53 -6 -4 -4 2 6 13 11 12 14 24 8 27 -5 3 -8 33 -5 67 3 46 1
58 -9 53 -6 -4 -4 2 6 13 11 12 14 24 8 27 -5 3 -8 33 -5 67 3 46 1 58 -9 53
-6 -4 -4 2 6 13 11 13 14 23 8 27 -5 4 -8 24 -6 46 3 37 -2 45 -27 41 -5 0 -8
4 -8 9 0 6 -7 10 -15 10 -8 0 -15 4 -15 10 0 5 -3 9 -7 8 -5 -1 -22 5 -39 15
-17 9 -34 13 -38 10 -3 -4 -6 -1 -6 5 0 7 -6 12 -14 12 -7 0 -19 7 -26 15 -7
9 -15 13 -18 10 -3 -3 -14 3 -25 12 -10 10 -20 16 -21 14 -2 -8 -46 11 -46 20
0 5 -6 9 -14 9 -8 0 -43 16 -79 35 -35 19 -67 32 -71 28 -3 -3 -6 -1 -6 5 0 7
-7 12 -15 12 -8 0 -15 5 -15 11 0 5 -4 7 -10 4 -5 -3 -10 -1 -10 6 0 7 -3 9
-7 6 -3 -4 -15 1 -26 10 -10 10 -22 17 -26 16 -12 -5 -41 8 -41 18 0 6 -4 7
-10 4 -5 -3 -10 -1 -10 4 0 6 -3 10 -7 9 -5 -1 -18 3 -29 10 -12 6 -24 8 -28
5 -3 -3 -6 -1 -6 5 0 7 -9 12 -21 12 -11 0 -17 5 -14 10 3 6 1 11 -4 11 -6 1
-14 3 -18 4 -5 2 -18 6 -30 10 -13 4 -23 12 -23 17 0 5 -5 8 -12 6 -7 -3 -28
6 -47 19 -18 13 -39 23 -46 23 -7 0 -18 6 -25 14 -6 8 -19 12 -27 9 -11 -4
-14 -2 -9 5 5 8 0 12 -12 12 -11 0 -25 7 -32 15 -6 8 -15 14 -18 13 -15 -4
-52 14 -52 24 0 6 -3 8 -7 5 -3 -4 -12 -2 -20 4 -7 6 -13 8 -13 3 0 -5 -4 -3
-9 5 -7 11 -11 10 -19 -5z"/>
</g>
</svg>
